<?xml version="1.0" encoding="UTF-8"?>
<svg version="1.1" xmlns="http://www.w3.org/2000/svg" width="645" height="259">
<path d="M0 0 C0 2.97 0 5.94 0 9 C-0.66 9.33 -1.32 9.66 -2 10 C-2.26420117 11.94848361 -2.52093364 13.89873946 -2.71484375 15.85546875 C-3.09527895 18.71654994 -3.98946638 21.30524369 -5 24 C-5.66 24 -6.32 24 -7 24 C-7.268125 24.721875 -7.53625 25.44375 -7.8125 26.1875 C-8.99901362 28.99766383 -10.27485639 31.48416557 -12 34 C-12.66 34 -13.32 34 -14 34 C-14.185625 34.7425 -14.37125 35.485 -14.5625 36.25 C-16.49962782 39.95580974 -19.24121225 41.44922049 -23 43 C-25.79590818 43.35364064 -28.17583945 43.51085467 -30.95483398 43.45410156 C-31.71663467 43.45468567 -32.47843536 43.45526978 -33.26332092 43.45587158 C-35.75805724 43.45310549 -38.2515686 43.42208562 -40.74609375 43.390625 C-42.48486173 43.38315731 -44.22363817 43.37746687 -45.9624176 43.37347412 C-50.52134764 43.35825925 -55.07976154 43.31901371 -59.63848877 43.2746582 C-64.29733296 43.23361559 -68.9562612 43.21544397 -73.61523438 43.1953125 C-82.74371537 43.15251501 -91.87181463 43.08431444 -101 43 C-101 43.66 -101 44.32 -101 45 C-102.216875 45.20625 -103.43375 45.4125 -104.6875 45.625 C-109.54920569 46.81036287 -111.10596643 49.03103968 -114 53 C-114.99 53.66 -115.98 54.32 -117 55 C-118.21284876 58.05429073 -118.21284876 58.05429073 -119 61 C-119.66 61 -120.32 61 -121 61 C-121 94 -121 127 -121 161 C-120.34 161 -119.68 161 -119 161 C-118.0234375 162.79036458 -117.046875 164.58072917 -116.0703125 166.37109375 C-115.08589976 168.16618315 -115.08589976 168.16618315 -113 169 C-113 169.66 -113 170.32 -113 171 C-112.04287109 171.30744141 -112.04287109 171.30744141 -111.06640625 171.62109375 C-109.82697266 172.02521484 -109.82697266 172.02521484 -108.5625 172.4375 C-107.73878906 172.70433594 -106.91507813 172.97117188 -106.06640625 173.24609375 C-104 174 -104 174 -103 175 C-100.12601356 175.12190487 -97.27565399 175.1786491 -94.40039062 175.19287109 C-93.4978656 175.20104858 -92.59534058 175.20922607 -91.66546631 175.21765137 C-88.66240103 175.2425703 -85.65938343 175.25904314 -82.65625 175.2734375 C-81.63133957 175.27876118 -80.60642914 175.28408485 -79.55046082 175.28956985 C-74.11958564 175.3163371 -68.68873367 175.33569543 -63.2578125 175.35009766 C-57.65680415 175.36670104 -52.05638931 175.41143253 -46.45560455 175.4624691 C-42.14375161 175.49620242 -37.83203797 175.50768216 -33.52006531 175.51332474 C-31.45647172 175.52002669 -29.39288696 175.53522111 -27.329422 175.55921555 C-24.43072036 175.59098279 -21.53359703 175.59088571 -18.63476562 175.58349609 C-17.78972473 175.59990143 -16.94468384 175.61630676 -16.07403564 175.63320923 C-8.58429156 175.55551049 -3.09341228 172.70673575 2.5 167.8125 C4.0622482 166.0636095 4.0622482 166.0636095 5 164 C5.66 164 6.32 164 7 164 C7.82505635 158.93391574 8.16443763 153.99672584 8.20532227 148.86157227 C8.21522186 148.08026443 8.22512146 147.2989566 8.23532104 146.49397278 C8.26667943 143.9348138 8.29159095 141.37563631 8.31640625 138.81640625 C8.33699799 137.03278648 8.35799502 135.24917135 8.37937927 133.46556091 C8.43437074 128.78854139 8.48388039 124.11147951 8.53222656 119.43438721 C8.58260977 114.65478785 8.63820774 109.87524942 8.69335938 105.09570312 C8.80066023 95.73052089 8.90216664 86.36528559 9 77 C9.66 77 10.32 77 11 77 C11 76.34 11 75.68 11 75 C11.5775 74.7525 12.155 74.505 12.75 74.25 C15.13266887 73.0681388 15.13266887 73.0681388 17.0625 70.875 C19 69 19 69 22 69 C22.99 67.02 22.99 67.02 24 65 C24.66 65 25.32 65 26 65 C26 64.34 26 63.68 26 63 C29.37097383 61.50178941 31.20442119 61 35 61 C35 60.34 35 59.68 35 59 C35.60328125 58.80664062 36.2065625 58.61328125 36.828125 58.4140625 C37.62734375 58.15367188 38.4265625 57.89328125 39.25 57.625 C40.03890625 57.36976562 40.8278125 57.11453125 41.640625 56.8515625 C43.99028826 56.07448519 43.99028826 56.07448519 45.984375 54.8984375 C48.44016289 53.80380336 50.33761223 53.93702703 53 54 C53.04654865 67.28356942 53.08198293 80.5671191 53.10362434 93.85075378 C53.11401642 100.02032371 53.12809112 106.18983742 53.15087891 112.359375 C53.17277162 118.32460068 53.18460295 124.28977262 53.18975449 130.2550354 C53.19342097 132.51934656 53.20057975 134.78365513 53.21146011 137.04794312 C53.34930801 166.95207597 53.34930801 166.95207597 50 177 C49.34 177 48.68 177 48 177 C47.896875 178.093125 47.79375 179.18625 47.6875 180.3125 C46.97709268 184.12286654 46.70753305 184.61737092 44 187 C43.731875 187.78375 43.46375 188.5675 43.1875 189.375 C41.84339039 192.34618966 40.12324125 193.71473618 37.57421875 195.68359375 C35.71966469 197.15477537 35.71966469 197.15477537 33.5 200 C30.14191174 204.02970591 26.51357808 208.36381791 21 209 C21 209.66 21 210.32 21 211 C18.09399739 212.25664978 16.20395416 213 13 213 C13 213.66 13 214.32 13 215 C11.88625 215.28875 10.7725 215.5775 9.625 215.875 C5.99708908 216.69241329 5.99708908 216.69241329 4 219 C-6.7757472 222.28249175 -18.87108974 221.29058097 -30.00390625 221.265625 C-32.13516789 221.26697491 -34.26642923 221.26891815 -36.39768982 221.27142334 C-40.84645544 221.27435863 -45.29514031 221.27012811 -49.74389648 221.26074219 C-55.42153372 221.24934172 -61.09898194 221.25592115 -66.77661228 221.26788712 C-71.17174177 221.27514298 -75.56682705 221.27280083 -79.96195793 221.26763153 C-82.05455485 221.26630569 -84.1471559 221.26790501 -86.239748 221.27259064 C-111.47157207 221.31670779 -111.47157207 221.31670779 -121.6875 216.875 C-122.51636719 216.52179688 -123.34523437 216.16859375 -124.19921875 215.8046875 C-124.79347656 215.53914062 -125.38773438 215.27359375 -126 215 C-126 214.34 -126 213.68 -126 213 C-127.546875 212.62875 -127.546875 212.62875 -129.125 212.25 C-135.03642422 210.53378006 -138.87265574 207.42744654 -142.6328125 202.5859375 C-144.70973027 200.17671288 -147.15834313 198.26886216 -149.64453125 196.296875 C-150.09183594 195.86890625 -150.53914063 195.4409375 -151 195 C-151 194.34 -151 193.68 -151 193 C-151.66 193 -152.32 193 -153 193 C-153.433125 192.0409375 -153.433125 192.0409375 -153.875 191.0625 C-154.82823451 188.84793921 -154.82823451 188.84793921 -157 188 C-158.3749149 185.09740189 -159 183.23861295 -159 180 C-159.66 180 -160.32 180 -161 180 C-161.66 176.37 -162.32 172.74 -163 169 C-163.66 169 -164.32 169 -165 169 C-165.33 167.02 -165.66 165.04 -166 163 C-166.33 163 -166.66 163 -167 163 C-167 128.68 -167 94.36 -167 59 C-166.34 59 -165.68 59 -165 59 C-165.0825 58.0925 -165.165 57.185 -165.25 56.25 C-165.29699497 50.55186003 -162.9404151 45.27550356 -161 40 C-160.34 40 -159.68 40 -159 40 C-158.62875 38.453125 -158.62875 38.453125 -158.25 36.875 C-156.45021836 30.63240076 -152.62787015 26.41262038 -148 22 C-147.4740625 21.44183594 -146.948125 20.88367188 -146.40625 20.30859375 C-142.3990189 16.09189376 -138.23502072 12.6114931 -133 10 C-132.34 10 -131.68 10 -131 10 C-131 9.34 -131 8.68 -131 8 C-128.09399739 6.74335022 -126.20395416 6 -123 6 C-123 5.34 -123 4.68 -123 4 C-121.33389071 3.68454181 -119.6670755 3.37281161 -118 3.0625 C-117.071875 2.88847656 -116.14375 2.71445312 -115.1875 2.53515625 C-107.98594806 1.32607216 -101.05191596 0.84020133 -93.76025391 0.79467773 C-92.76743408 0.78477814 -91.77461426 0.77487854 -90.75170898 0.76467896 C-87.49335047 0.7332732 -84.23497747 0.70838672 -80.9765625 0.68359375 C-78.70591878 0.66300306 -76.43527871 0.64200606 -74.16464233 0.62062073 C-68.20443716 0.56558506 -62.24419839 0.51610097 -56.28393555 0.46777344 C-50.20358272 0.41746559 -44.12327913 0.36180279 -38.04296875 0.30664062 C-29.18312812 0.22694408 -20.32327336 0.14941199 -11.46337891 0.07592773 C-10.52936249 0.06814804 -9.59534607 0.06036835 -8.63302612 0.05235291 C-7.78359436 0.04538391 -6.9341626 0.03841492 -6.05899048 0.03123474 C-4.94906707 0.02212145 -4.94906707 0.02212145 -3.81672096 0.01282406 C-2.54450516 0.00384361 -1.2722475 0 0 0 Z " fill="#000000" transform="translate(167,38)"/>
<path d="M0 0 C1.2249971 -0.0159874 2.4499942 -0.03197479 3.71211243 -0.04844666 C5.05571071 -0.05482394 6.39931398 -0.0602165 7.74291992 -0.06469727 C9.11813965 -0.07366258 10.49335836 -0.08278441 11.86857605 -0.09205627 C14.75453054 -0.10856056 17.64036886 -0.11624863 20.52636719 -0.11914062 C24.2188696 -0.1245181 27.91027463 -0.16216306 31.60246754 -0.20788479 C34.44471686 -0.23768103 37.28670316 -0.24486475 40.12909508 -0.24586678 C41.48985494 -0.25006615 42.85061579 -0.26248947 44.21122169 -0.28338432 C46.11849131 -0.3103357 48.02615684 -0.30235986 49.93359375 -0.29296875 C51.56002556 -0.30057472 51.56002556 -0.30057472 53.21931458 -0.30833435 C57.2567511 0.53541007 58.71208131 2.02713414 61.16088867 5.30639648 C61.78907776 8.43106079 61.78907776 8.43106079 61.79199219 11.97680664 C61.80272514 12.95090736 61.80272514 12.95090736 61.81367493 13.94468689 C61.83050652 16.07900558 61.81120093 18.21120748 61.78979492 20.34545898 C61.79062395 21.83328423 61.79308463 23.32110939 61.79710388 24.80892944 C61.79995776 27.92099708 61.7852987 31.03234332 61.7578125 34.14428711 C61.72366965 38.13390467 61.72977073 42.12223776 61.74847507 46.1119175 C61.7590387 49.18147504 61.75011434 52.25073321 61.73509026 55.32026291 C61.7299072 56.79146816 61.73039179 58.26270466 61.73663521 59.73390579 C61.74208264 61.78821452 61.72173544 63.8406771 61.69433594 65.89477539 C61.68503807 67.64753281 61.68503807 67.64753281 61.67555237 69.43569946 C61.16088867 72.30639648 61.16088867 72.30639648 59.29495239 74.16174316 C50.43417195 78.91442306 38.08757446 77.5565151 28.34838867 77.43139648 C26.96232755 77.42133021 25.57625921 77.41221091 24.19018555 77.40405273 C20.84689594 77.38075455 17.50399136 77.3480451 14.16088867 77.30639648 C14.16088867 77.96639648 14.16088867 78.62639648 14.16088867 79.30639648 C12.58307617 79.52295898 12.58307617 79.52295898 10.97338867 79.74389648 C8.77774763 80.06784352 6.5852779 80.42413505 4.41088867 80.86889648 C2.16088867 81.30639648 2.16088867 81.30639648 -0.83911133 81.30639648 C-0.83911133 81.96639648 -0.83911133 82.62639648 -0.83911133 83.30639648 C-2.79496458 84.31123852 -4.7538737 85.31013454 -6.71411133 86.30639648 C-7.8046582 86.86327148 -8.89520508 87.42014648 -10.01879883 87.99389648 C-12.83911133 89.30639648 -12.83911133 89.30639648 -14.83911133 89.30639648 C-14.83911133 89.96639648 -14.83911133 90.62639648 -14.83911133 91.30639648 C-15.73629883 91.70858398 -15.73629883 91.70858398 -16.65161133 92.11889648 C-18.8859053 93.33179893 -20.12148137 94.45135613 -21.83911133 96.30639648 C-22.66411133 97.11077148 -23.48911133 97.91514648 -24.33911133 98.74389648 C-26.82058196 101.16593137 -26.82058196 101.16593137 -28.52661133 103.61889648 C-28.95973633 104.17577148 -29.39286133 104.73264648 -29.83911133 105.30639648 C-30.49911133 105.30639648 -31.15911133 105.30639648 -31.83911133 105.30639648 C-32.49911133 107.28639648 -33.15911133 109.26639648 -33.83911133 111.30639648 C-34.49911133 111.30639648 -35.15911133 111.30639648 -35.83911133 111.30639648 C-36.12786133 112.42014648 -36.41661133 113.53389648 -36.71411133 114.68139648 C-37.83911133 118.30639648 -37.83911133 118.30639648 -39.83911133 120.30639648 C-40.51203634 122.27330023 -40.51203634 122.27330023 -40.96411133 124.43139648 C-41.25286133 125.71014648 -41.54161133 126.98889648 -41.83911133 128.30639648 C-42.49911133 128.30639648 -43.15911133 128.30639648 -43.83911133 128.30639648 C-44.18650312 132.22194547 -44.51675949 136.13870729 -44.83911133 140.05639648 C-44.93595215 141.23186035 -45.03279297 142.40732422 -45.13256836 143.6184082 C-45.75444771 151.70942055 -46.01528533 159.70203164 -45.58911133 167.80932617 C-45.3898779 174.19863155 -47.1975685 178.79249647 -51.02832031 183.88833618 C-53.65730693 185.94713895 -55.66289449 185.70131131 -58.9753418 185.72631836 C-60.87278641 185.75018616 -60.87278641 185.75018616 -62.80856323 185.77453613 C-64.1911412 185.7758035 -65.57372053 185.77598018 -66.95629883 185.77514648 C-68.37493186 185.78224794 -69.79356202 185.78994691 -71.21218872 185.79821777 C-74.18638082 185.81166807 -77.16030748 185.81322952 -80.13452148 185.80737305 C-83.94025593 185.80148245 -87.74471218 185.83203678 -91.55019951 185.87248993 C-94.48083316 185.89838358 -97.41115997 185.90124283 -100.34189224 185.89759827 C-101.74450004 185.89928865 -103.14712214 185.90892354 -104.54961777 185.92674255 C-106.51431764 185.94895354 -108.47931902 185.9360126 -110.4440918 185.92163086 C-112.11929398 185.92471252 -112.11929398 185.92471252 -113.82833862 185.92785645 C-117.90290754 185.08681606 -119.36834719 183.61319331 -121.83911133 180.30639648 C-122.44038391 177.31340027 -122.44038391 177.31340027 -122.40673828 173.95556641 C-122.40636063 172.69463669 -122.40598297 171.43370697 -122.40559387 170.13456726 C-122.38006457 168.76865643 -122.35398466 167.40275579 -122.32739258 166.03686523 C-122.31805992 164.63154867 -122.31094594 163.22621576 -122.30595398 161.82087708 C-122.28691905 158.13301189 -122.23785103 154.44614098 -122.18243408 150.75866699 C-122.13116437 146.99151051 -122.10842362 143.22419238 -122.08325195 139.45678711 C-122.0297267 132.07287168 -121.94445915 124.68977372 -121.83911133 117.30639648 C-121.17911133 117.30639648 -120.51911133 117.30639648 -119.83911133 117.30639648 C-119.77723633 116.68764648 -119.71536133 116.06889648 -119.65161133 115.43139648 C-118.83911133 113.30639648 -118.83911133 113.30639648 -116.83837891 112.18579102 C-112.84278489 111.01427049 -109.17905936 111.05801331 -105.03833008 111.11108398 C-103.78376762 111.11532883 -103.78376762 111.11532883 -102.50386047 111.11965942 C-99.84462907 111.13081328 -97.18574015 111.15590886 -94.52661133 111.18139648 C-92.7186735 111.19143249 -90.91073037 111.20055726 -89.1027832 111.20874023 C-84.68142821 111.2307369 -80.26032775 111.26523354 -75.83911133 111.30639648 C-75.83911133 110.64639648 -75.83911133 109.98639648 -75.83911133 109.30639648 C-70.39411133 108.31639648 -70.39411133 108.31639648 -64.83911133 107.30639648 C-64.83911133 106.64639648 -64.83911133 105.98639648 -64.83911133 105.30639648 C-59.88911133 104.31639648 -59.88911133 104.31639648 -54.83911133 103.30639648 C-54.83911133 102.64639648 -54.83911133 101.98639648 -54.83911133 101.30639648 C-53.86973633 101.01764648 -52.90036133 100.72889648 -51.90161133 100.43139648 C-48.73246929 99.66424967 -48.73246929 99.66424967 -47.83911133 97.30639648 C-45.86022172 96.57945744 -43.85956575 95.90823397 -41.83911133 95.30639648 C-41.83911133 94.64639648 -41.83911133 93.98639648 -41.83911133 93.30639648 C-41.24614258 93.04729492 -40.65317383 92.78819336 -40.04223633 92.52124023 C-29.84459292 86.89807162 -21.59730138 71.90877004 -17.83911133 61.30639648 C-16.98937774 57.9915017 -16.3924346 54.68046557 -15.83911133 51.30639648 C-15.34263071 49.0922531 -14.85590253 47.33997888 -13.83911133 45.30639648 C-13.74279846 42.69120354 -13.70204411 40.09772487 -13.69848633 37.48217773 C-13.68014902 35.87995008 -13.66057786 34.27773617 -13.63989258 32.67553711 C-13.61100118 30.15194692 -13.58911334 27.6292347 -13.58862305 25.10546875 C-13.58526959 22.667748 -13.5506028 20.23204545 -13.51098633 17.79467773 C-13.51805603 17.04962479 -13.52512573 16.30457184 -13.53240967 15.53694153 C-13.3375921 7.06602256 -8.75166398 0.08606698 0 0 Z " fill="#3DC4E0" transform="translate(195.839111328125,-0.306396484375)"/>
<path d="M0 0 C0 1.32 0 2.64 0 4 C0.350625 4.804375 0.70125 5.60875 1.0625 6.4375 C2.16814687 9.45960145 1.72766256 10.92764696 1 14 C1.495 15.485 1.495 15.485 2 17 C1.69653784 21.40020134 1.05001487 25.05162183 -0.51708984 29.16455078 C-2.18944462 34.08083291 -2.4566004 38.58139695 -2.4765625 43.7421875 C-2.49214203 44.63237579 -2.50772156 45.52256409 -2.52377319 46.43972778 C-2.57086058 49.25147755 -2.59892705 52.0629839 -2.625 54.875 C-2.66155831 57.70826924 -2.70215902 60.5414024 -2.74765015 63.37454224 C-2.77476797 65.12956713 -2.7961661 66.88469195 -2.81118774 68.63986206 C-2.85473654 71.99901672 -2.93060711 74.79182134 -4 78 C-4.99 78.66 -5.98 79.32 -7 80 C-8.19232613 82.05003955 -8.19232613 82.05003955 -9 84 C-18.66441341 84.41796865 -28.33026919 84.73919704 -38 85 C-38.75865356 85.02122925 -39.51730713 85.0424585 -40.2989502 85.06433105 C-44.94582496 85.19111931 -49.59177374 85.2859075 -54.24005127 85.34204102 C-55.74146813 85.36393761 -57.24278349 85.39463892 -58.74383545 85.43432617 C-60.8609266 85.4882468 -62.97606639 85.50971505 -65.09375 85.5234375 C-66.30740234 85.54325684 -67.52105469 85.56307617 -68.77148438 85.58349609 C-73.01694925 84.81620473 -74.29778034 83.31216746 -77 80 C-77.60127258 77.00700378 -77.60127258 77.00700378 -77.56762695 73.64916992 C-77.5672493 72.3882402 -77.56687164 71.12731049 -77.56648254 69.82817078 C-77.54095324 68.46225994 -77.51487333 67.09635931 -77.48828125 65.73046875 C-77.47894859 64.32515218 -77.47183461 62.91981928 -77.46684265 61.51448059 C-77.44780772 57.82661541 -77.39873971 54.13974449 -77.34332275 50.45227051 C-77.29205304 46.68511402 -77.2693123 42.91779589 -77.24414062 39.15039062 C-77.19061537 31.7664752 -77.10534782 24.38337724 -77 17 C-76.34 17 -75.68 17 -75 17 C-74.938125 16.38125 -74.87625 15.7625 -74.8125 15.125 C-74 13 -74 13 -71.98657227 11.88647461 C-68.11355614 10.73688567 -64.40551887 10.70225565 -60.40234375 10.69140625 C-58.69596047 10.66622272 -56.98958034 10.64082508 -55.28320312 10.61523438 C-52.61988324 10.58667527 -49.95661866 10.56263592 -47.29321289 10.54370117 C-33.88088293 10.42994201 -22.57696948 8.89104369 -10 4 C-9.34 4 -8.68 4 -8 4 C-8 3.34 -8 2.68 -8 2 C-5.09399739 0.74335022 -3.20395416 0 0 0 Z " fill="#AA5BF9" transform="translate(151,100)"/>
<path d="M0 0 C8.63208135 -0.06786775 17.26398452 -0.12286895 25.89627266 -0.15543652 C29.90490789 -0.17106997 33.91335057 -0.19226548 37.921875 -0.22631836 C41.79278319 -0.25899512 45.66350657 -0.27687047 49.53454208 -0.28463173 C51.00888858 -0.29016037 52.48322534 -0.30095651 53.95749283 -0.31719017 C56.02803386 -0.33907587 58.09781831 -0.34196241 60.16845703 -0.34057617 C61.93384323 -0.35056892 61.93384323 -0.35056892 63.7348938 -0.36076355 C68.73142229 0.19130589 71.95778324 1.84511116 75.3125 5.5625 C79.08168417 11.00687713 78.52039799 16.53963068 78 23 C75.84487195 31.6854257 69.75198294 36.62353784 63.25 42.2578125 C59.16135812 45.83089719 55.19533168 49.52009969 51.25 53.25 C41.28182439 62.63304161 31.17648506 71.84116345 21 81 C39.81 81.33 58.62 81.66 78 82 C78 87.94 78 93.88 78 100 C68.73329621 100.13577843 59.46725745 100.24575911 50.19978237 100.31087303 C45.89607604 100.3421312 41.59308793 100.38450099 37.28979492 100.45263672 C33.13354033 100.51802938 28.97797468 100.5537475 24.82124519 100.56926346 C23.23879213 100.58031444 21.65637504 100.60189539 20.07421684 100.63438034 C6.12477857 100.90929175 6.12477857 100.90929175 1.53540039 97.15087891 C-1.97243278 93.44978693 -2.20215128 89.76657676 -2.3125 84.8125 C-2.34988281 83.72582031 -2.38726562 82.63914062 -2.42578125 81.51953125 C-1.42060101 73.21065602 3.38509221 68.03519396 9.25 62.4375 C9.92458252 61.77838623 10.59916504 61.11927246 11.29418945 60.44018555 C15.08205955 56.76206902 18.94340833 53.20457729 22.98046875 49.80078125 C26.3249244 46.81858772 29.42654829 43.59297042 32.57446289 40.40600586 C35.34148427 37.6179658 38.13600529 34.92835176 41.125 32.375 C45.96919582 28.1558617 50.45756887 23.54243113 55 19 C36.85 18.67 18.7 18.34 0 18 C0 12.06 0 6.12 0 0 Z " fill="#000000" transform="translate(470,101)"/>
<path d="M0 0 C6.6 0 13.2 0 20 0 C20 13.86 20 27.72 20 42 C23.96 42 27.92 42 32 42 C32.66 40.35 33.32 38.7 34 37 C35.04555728 35.05319456 36.12549827 33.12464638 37.23046875 31.2109375 C37.86919922 30.10363281 38.50792969 28.99632812 39.16601562 27.85546875 C39.49899658 27.28231934 39.83197754 26.70916992 40.17504883 26.11865234 C41.17112412 24.40320268 42.16081317 22.68404996 43.15039062 20.96484375 C44.448752 18.72092249 45.76355697 16.48643189 47.0949707 14.26196289 C48.34257322 12.1257054 49.52454198 9.94942296 50.62963867 7.73608398 C54.49438579 0.4764447 54.49438579 0.4764447 58.70336914 -0.85546875 C61.8559806 -1.08447077 64.79005449 -0.96688219 67.9375 -0.6875 C69.53561523 -0.61305664 69.53561523 -0.61305664 71.16601562 -0.53710938 C73.78444188 -0.40794934 76.38862537 -0.22789367 79 0 C77.6299509 3.67358368 75.96525753 6.93130205 73.9453125 10.2890625 C73.33550537 11.30452148 72.72569824 12.31998047 72.09741211 13.36621094 C71.12106812 14.97931152 71.12106812 14.97931152 70.125 16.625 C69.46185791 17.73133789 68.79871582 18.83767578 68.11547852 19.97753906 C64.92280955 25.27917952 61.68462027 30.53371486 58.26953125 35.6953125 C57.70540527 36.55431152 57.1412793 37.41331055 56.56005859 38.29833984 C55.4996611 39.90058354 54.42370598 41.49266733 53.33056641 43.07275391 C50.5910476 46.96657539 50.5910476 46.96657539 50.37109375 51.5 C50.90863281 52.325 51.44617188 53.15 52 54 C52.52049927 54.87060059 52.52049927 54.87060059 53.05151367 55.75878906 C54.36877535 57.95022622 55.74207936 60.09941821 57.125 62.25 C57.63836914 63.05687256 58.15173828 63.86374512 58.68066406 64.69506836 C61.51559171 69.1443995 64.37236279 73.57948931 67.23568726 78.0105896 C68.71200026 80.29634122 70.185308 82.58402404 71.65863037 84.8717041 C72.74152023 86.54936278 73.82996874 88.22342918 74.91845703 89.89746094 C75.57958496 90.92258789 76.24071289 91.94771484 76.921875 93.00390625 C77.51581055 93.91986572 78.10974609 94.8358252 78.72167969 95.77954102 C80 98 80 98 80 100 C59.92753962 102.26540232 59.92753962 102.26540232 53.92578125 97.62109375 C52.03956364 94.577996 50.54031359 91.62013984 49.11962891 88.34667969 C46.87053069 83.63269538 43.87833173 79.32746783 41.0625 74.9375 C39.94247075 73.15918013 38.82880038 71.37683347 37.72265625 69.58984375 C37.24578369 68.82534912 36.76891113 68.06085449 36.27758789 67.27319336 C35 65 35 65 33 60 C28.71 60 24.42 60 20 60 C20 73.2 20 86.4 20 100 C13.4 100 6.8 100 0 100 C0 67 0 34 0 0 Z " fill="#000000" transform="translate(565,101)"/>
<path d="M0 0 C1.14597656 -0.01160156 2.29195313 -0.02320312 3.47265625 -0.03515625 C12.95554272 -0.00279145 21.59745079 1.48881681 30.0625 5.9375 C30.86816406 6.35128906 31.67382812 6.76507813 32.50390625 7.19140625 C34.5 8.375 34.5 8.375 36.5 10.375 C36.5 11.365 36.5 12.355 36.5 13.375 C34.29298942 15.38727435 32.11713803 17.19646627 29.75 19 C28.79867187 19.75410156 28.79867187 19.75410156 27.828125 20.5234375 C22.14424196 24.92844685 22.14424196 24.92844685 18.5 25.375 C16.80327614 24.08013179 15.1396721 22.74139342 13.5 21.375 C8.64630105 19.32151198 4.30690798 19.02296095 -0.875 19.0625 C-2.0055481 19.06987183 -2.0055481 19.06987183 -3.15893555 19.07739258 C-9.95766344 19.22116787 -14.86679569 19.93446917 -20.0625 24.75 C-21.72940601 27.24361583 -21.72940601 27.24361583 -21.35595703 29.87866211 C-20.71939644 32.47060788 -20.71939644 32.47060788 -18.66748047 33.81860352 C-10.76723482 37.47606574 -2.67355465 39.88831998 5.69140625 42.24804688 C18.02059636 45.85925936 28.95832359 50.24720793 36.375 61.125 C38.81448591 68.17240374 39.41219983 75.22575925 36.63671875 82.24609375 C31.88520912 91.14496918 23.84966092 96.7086509 14.40380859 99.75317383 C8.67814185 100.97927717 2.839547 100.8545914 -2.99121094 100.82104492 C-5.23206601 100.81256784 -7.47033503 100.84131239 -9.7109375 100.87304688 C-22.27068385 100.93462659 -33.05330885 98.74913493 -43.5 91.375 C-42.94044927 87.86539184 -41.90931012 86.51497085 -39.12109375 84.359375 C-38.11079102 83.56660156 -38.11079102 83.56660156 -37.08007812 82.7578125 C-36.37302734 82.21898437 -35.66597656 81.68015625 -34.9375 81.125 C-34.22658203 80.57070312 -33.51566406 80.01640625 -32.78320312 79.4453125 C-31.02883426 78.07949513 -29.26783576 76.72331168 -27.5 75.375 C-26.68595703 75.89900391 -26.68595703 75.89900391 -25.85546875 76.43359375 C-25.14003906 76.88863281 -24.42460937 77.34367187 -23.6875 77.8125 C-22.97980469 78.26496094 -22.27210938 78.71742188 -21.54296875 79.18359375 C-16.42556473 82.1679307 -11.06163339 81.63383665 -5.3125 81.6875 C-4.29607422 81.71650391 -3.27964844 81.74550781 -2.23242188 81.77539062 C4.10682651 81.82859284 9.31668799 81.29453337 14.5 77.375 C16.6610211 74.13346834 17.14247553 73.13807099 16.5 69.375 C10.81719695 62.90836205 -0.09738028 61.13484388 -8.08789062 58.84008789 C-33.0571401 51.6369367 -33.0571401 51.6369367 -40.5 40.375 C-43.69898017 33.83748683 -43.39034632 26.51739878 -41.4375 19.625 C-35.40115361 9.49951573 -27.97114442 3.96191876 -16.64355469 0.99243164 C-11.10521681 -0.09536399 -5.62602401 -0.05695637 0 0 Z " fill="#000000" transform="translate(297.5,100.625)"/>
<path d="M0 0 C0.74759079 0.0028299 1.49518158 0.00565979 2.26542664 0.00857544 C4.63935755 0.01971781 7.012903 0.04481088 9.38671875 0.0703125 C11.00194765 0.08035001 12.61718251 0.08947451 14.23242188 0.09765625 C18.17995336 0.11793119 22.12665757 0.15708975 26.07421875 0.1953125 C26.07421875 6.1353125 26.07421875 12.0753125 26.07421875 18.1953125 C16.83421875 18.1953125 7.59421875 18.1953125 -1.92578125 18.1953125 C-1.92578125 45.2553125 -1.92578125 72.3153125 -1.92578125 100.1953125 C-8.52578125 100.1953125 -15.12578125 100.1953125 -21.92578125 100.1953125 C-21.9935912 88.95555283 -22.04861718 77.71592931 -22.08121777 66.47601128 C-22.09686536 61.25671659 -22.11808726 56.03756926 -22.15209961 50.81835938 C-22.18472512 45.78036172 -22.20264108 40.74250571 -22.21041298 35.70441055 C-22.21595074 33.78349707 -22.22676465 31.86259123 -22.24297142 29.94173813 C-22.26478804 27.24858676 -22.2677464 24.55601867 -22.26635742 21.86279297 C-22.27714325 21.07085037 -22.28792908 20.27890778 -22.29904175 19.46296692 C-22.27216225 14.63795008 -21.56760181 11.38513271 -18.92578125 7.1953125 C-12.87789754 1.41038026 -8.23140298 -0.1183577 0 0 Z " fill="#000000" transform="translate(392.92578125,100.8046875)"/>
<path d="M0 0 C1.2249971 -0.0159874 2.4499942 -0.03197479 3.71211243 -0.04844666 C5.05571071 -0.05482394 6.39931398 -0.0602165 7.74291992 -0.06469727 C9.11813965 -0.07366258 10.49335836 -0.08278441 11.86857605 -0.09205627 C14.75453054 -0.10856056 17.64036886 -0.11624863 20.52636719 -0.11914062 C24.2188696 -0.1245181 27.91027463 -0.16216306 31.60246754 -0.20788479 C34.44471686 -0.23768103 37.28670316 -0.24486475 40.12909508 -0.24586678 C41.48985494 -0.25006615 42.85061579 -0.26248947 44.21122169 -0.28338432 C56.19746057 -0.45276032 56.19746057 -0.45276032 59.54638672 2.69677734 C61.16088867 5.30639648 61.16088867 5.30639648 60.97338867 7.61889648 C60.70526367 8.17577148 60.43713867 8.73264648 60.16088867 9.30639648 C59.54213867 8.50202148 58.92338867 7.69764648 58.28588867 6.86889648 C56.41924826 4.26765129 56.41924826 4.26765129 54.16088867 3.30639648 C52.67988056 3.21675802 51.19489443 3.18881723 49.71118164 3.19287109 C48.32997635 3.19298439 48.32997635 3.19298439 46.92086792 3.19309998 C45.92499664 3.19826126 44.92912537 3.20342255 43.90307617 3.20874023 C42.37579391 3.21086266 42.37579391 3.21086266 40.81765747 3.21302795 C37.55703832 3.21863748 34.29648716 3.23119161 31.03588867 3.24389648 C28.82885841 3.24891026 26.62182708 3.25347338 24.41479492 3.25756836 C18.99680287 3.26861 13.57885063 3.28535743 8.16088867 3.30639648 C8.16088867 3.63639648 8.16088867 3.96639648 8.16088867 4.30639648 C-0.4105399 5.59211077 -0.4105399 5.59211077 -3.83911133 4.30639648 C-4.12786133 4.92514648 -4.41661133 5.54389648 -4.71411133 6.18139648 C-5.83911133 8.30639648 -5.83911133 8.30639648 -7.83911133 10.30639648 C-8.21301378 13.05048117 -8.21301378 13.05048117 -8.25317383 16.29858398 C-8.29200684 17.54833008 -8.33083984 18.79807617 -8.37084961 20.08569336 C-8.40252135 21.4509143 -8.4335947 22.81614924 -8.46411133 24.18139648 C-8.5013848 25.5752854 -8.53898601 26.96916559 -8.5769043 28.36303711 C-8.82032124 37.84284277 -8.93748474 47.3235278 -8.96411133 56.80639648 C-8.97112061 58.53865479 -8.97112061 58.53865479 -8.97827148 60.3059082 C-8.97504253 66.86430341 -8.97504253 66.86430341 -8.27270508 73.37280273 C-7.75304371 76.88870984 -8.4925574 79.05882525 -9.83911133 82.30639648 C-7.19911133 82.30639648 -4.55911133 82.30639648 -1.83911133 82.30639648 C-1.83911133 81.64639648 -1.83911133 80.98639648 -1.83911133 80.30639648 C0.14088867 80.80139648 0.14088867 80.80139648 2.16088867 81.30639648 C1.17088867 81.30639648 0.18088867 81.30639648 -0.83911133 81.30639648 C-0.83911133 81.96639648 -0.83911133 82.62639648 -0.83911133 83.30639648 C-2.79496458 84.31123852 -4.7538737 85.31013454 -6.71411133 86.30639648 C-7.8046582 86.86327148 -8.89520508 87.42014648 -10.01879883 87.99389648 C-12.83911133 89.30639648 -12.83911133 89.30639648 -14.83911133 89.30639648 C-14.83911133 89.96639648 -14.83911133 90.62639648 -14.83911133 91.30639648 C-15.43723633 91.57452148 -16.03536133 91.84264648 -16.65161133 92.11889648 C-18.8859053 93.33179893 -20.12148137 94.45135613 -21.83911133 96.30639648 C-22.66411133 97.11077148 -23.48911133 97.91514648 -24.33911133 98.74389648 C-26.82058196 101.16593137 -26.82058196 101.16593137 -28.52661133 103.61889648 C-28.95973633 104.17577148 -29.39286133 104.73264648 -29.83911133 105.30639648 C-30.49911133 105.30639648 -31.15911133 105.30639648 -31.83911133 105.30639648 C-32.49911133 107.28639648 -33.15911133 109.26639648 -33.83911133 111.30639648 C-34.49911133 111.30639648 -35.15911133 111.30639648 -35.83911133 111.30639648 C-36.12786133 112.42014648 -36.41661133 113.53389648 -36.71411133 114.68139648 C-37.83911133 118.30639648 -37.83911133 118.30639648 -39.83911133 120.30639648 C-40.51203634 122.27330023 -40.51203634 122.27330023 -40.96411133 124.43139648 C-41.25286133 125.71014648 -41.54161133 126.98889648 -41.83911133 128.30639648 C-42.49911133 128.30639648 -43.15911133 128.30639648 -43.83911133 128.30639648 C-44.18650312 132.22194547 -44.51675949 136.13870729 -44.83911133 140.05639648 C-44.93595215 141.23186035 -45.03279297 142.40732422 -45.13256836 143.6184082 C-45.75444771 151.70942055 -46.01528533 159.70203164 -45.58911133 167.80932617 C-45.41270922 173.4664438 -46.66681411 177.58722165 -49.83911133 182.30639648 C-50.81175329 183.33302573 -51.80527998 184.3414132 -52.83911133 185.30639648 C-53.49911133 184.97639648 -54.15911133 184.64639648 -54.83911133 184.30639648 C-53.83911133 182.30639648 -52.83911133 180.30639648 -51.83911133 178.30639648 C-50.84911133 178.30639648 -49.85911133 178.30639648 -48.83911133 178.30639648 C-48.83102448 177.74342865 -48.82293762 177.18046082 -48.81460571 176.60043335 C-48.72837903 170.72761904 -48.62886793 164.85513525 -48.52172852 158.98266602 C-48.48350553 156.79261843 -48.4486411 154.60250949 -48.41723633 152.41235352 C-48.3714409 149.25962436 -48.31346984 146.10731511 -48.25317383 142.95483398 C-48.24162262 141.97960785 -48.23007141 141.00438171 -48.21817017 139.99960327 C-48.11116584 135.0424233 -47.74426254 130.95915943 -45.83911133 126.30639648 C-44.30112403 120.90994984 -43.67245379 116.88042694 -44.83911133 111.30639648 C-44.63286133 110.60514648 -44.42661133 109.90389648 -44.21411133 109.18139648 C-43.58026102 107.13859568 -43.58026102 107.13859568 -45.27661133 105.05639648 C-46.05004883 104.19014648 -46.05004883 104.19014648 -46.83911133 103.30639648 C-46.17911133 102.31639648 -45.51911133 101.32639648 -44.83911133 100.30639648 C-48.79911133 101.29639648 -48.79911133 101.29639648 -52.83911133 102.30639648 C-52.83911133 102.96639648 -52.83911133 103.62639648 -52.83911133 104.30639648 C-60.43438137 107.77927738 -67.54525779 110.2125221 -75.83911133 111.30639648 C-75.83911133 110.64639648 -75.83911133 109.98639648 -75.83911133 109.30639648 C-70.39411133 108.31639648 -70.39411133 108.31639648 -64.83911133 107.30639648 C-64.83911133 106.64639648 -64.83911133 105.98639648 -64.83911133 105.30639648 C-59.88911133 104.31639648 -59.88911133 104.31639648 -54.83911133 103.30639648 C-54.83911133 102.64639648 -54.83911133 101.98639648 -54.83911133 101.30639648 C-53.86973633 101.01764648 -52.90036133 100.72889648 -51.90161133 100.43139648 C-48.73246929 99.66424967 -48.73246929 99.66424967 -47.83911133 97.30639648 C-45.86022172 96.57945744 -43.85956575 95.90823397 -41.83911133 95.30639648 C-41.83911133 94.64639648 -41.83911133 93.98639648 -41.83911133 93.30639648 C-41.24614258 93.04729492 -40.65317383 92.78819336 -40.04223633 92.52124023 C-29.84459292 86.89807162 -21.59730138 71.90877004 -17.83911133 61.30639648 C-16.98937774 57.9915017 -16.3924346 54.68046557 -15.83911133 51.30639648 C-15.34263071 49.0922531 -14.85590253 47.33997888 -13.83911133 45.30639648 C-13.74279846 42.69120354 -13.70204411 40.09772487 -13.69848633 37.48217773 C-13.68014902 35.87995008 -13.66057786 34.27773617 -13.63989258 32.67553711 C-13.61100118 30.15194692 -13.58911334 27.6292347 -13.58862305 25.10546875 C-13.58526959 22.667748 -13.5506028 20.23204545 -13.51098633 17.79467773 C-13.51805603 17.04962479 -13.52512573 16.30457184 -13.53240967 15.53694153 C-13.3375921 7.06602256 -8.75166398 0.08606698 0 0 Z " fill="#3F8BE5" transform="translate(195.839111328125,-0.306396484375)"/>
<path d="M0 0 C0 21.78 0 43.56 0 66 C0.66 66.33 1.32 66.66 2 67 C1.67 67.99 1.34 68.98 1 70 C-4.94 70.495 -4.94 70.495 -11 71 C-11 70.34 -11 69.68 -11 69 C-12.2065625 68.814375 -12.2065625 68.814375 -13.4375 68.625 C-14.283125 68.41875 -15.12875 68.2125 -16 68 C-17.36239076 65.27521848 -17.11969958 63.13159145 -17.11352539 60.08154297 C-17.11344986 58.84040741 -17.11337433 57.59927185 -17.11329651 56.32052612 C-17.1081895 54.96107951 -17.1029735 53.60163331 -17.09765625 52.2421875 C-17.09579142 50.85499116 -17.09436782 49.46779416 -17.09336853 48.08059692 C-17.08954848 44.42765488 -17.07972255 40.77475252 -17.06866455 37.12182617 C-17.05843944 33.39502499 -17.05386855 29.66821741 -17.04882812 25.94140625 C-17.03809983 18.62758606 -17.02102954 11.31379859 -17 4 C-16.34 4 -15.68 4 -15 4 C-15 3.34 -15 2.68 -15 2 C-11 0 -11 0 0 0 Z " fill="#EE41F5" transform="translate(91,113)"/>
<path d="M0 0 C3.1875 0.4375 3.1875 0.4375 5.3125 2.625 C8.27177636 7.76021486 9.60624035 13.76851595 11.1875 19.4375 C11.56841797 18.47650391 11.56841797 18.47650391 11.95703125 17.49609375 C13.02701818 14.80710039 14.10526949 12.12158795 15.1875 9.4375 C15.47238281 8.72722656 15.75726563 8.01695312 16.05078125 7.28515625 C17.18475443 4.53454439 18.06133787 2.56366213 20.1875 0.4375 C25.39947544 -0.11696547 25.39947544 -0.11696547 27.80859375 1.578125 C29.71599917 4.15015044 29.89788236 6.33759822 30.3125 9.5 C30.4671875 10.66144531 30.621875 11.82289063 30.78125 13.01953125 C30.98234375 14.71142578 30.98234375 14.71142578 31.1875 16.4375 C31.3009375 17.34886719 31.414375 18.26023438 31.53125 19.19921875 C32.1458907 24.63708158 32.275737 29.96680616 32.1875 35.4375 C29.5475 35.4375 26.9075 35.4375 24.1875 35.4375 C23.5275 28.1775 22.8675 20.9175 22.1875 13.4375 C20.2075 19.0475 18.2275 24.6575 16.1875 30.4375 C13.2175 30.4375 10.2475 30.4375 7.1875 30.4375 C6.34862944 28.00177941 5.51623471 25.56416783 4.6875 23.125 C4.44902344 22.43470703 4.21054687 21.74441406 3.96484375 21.03320312 C2.95541737 18.04818511 2.1875 15.61091086 2.1875 12.4375 C1.5275 12.4375 0.8675 12.4375 0.1875 12.4375 C0.19910156 13.03175781 0.21070313 13.62601563 0.22265625 14.23828125 C0.40515601 31.00218798 0.40515601 31.00218798 -1.8125 35.4375 C-4.4525 35.4375 -7.0925 35.4375 -9.8125 35.4375 C-9.45619001 31.39741067 -9.08336912 27.3592119 -8.69555664 23.32202148 C-8.56606969 21.95004173 -8.44100668 20.57763663 -8.32055664 19.20483398 C-8.14608402 17.22532361 -7.95407845 15.24738357 -7.76171875 13.26953125 C-7.65174561 12.08077393 -7.54177246 10.8920166 -7.4284668 9.66723633 C-6.5213455 4.91087184 -5.02169147 0.78115201 0 0 Z " fill="#000000" transform="translate(483.8125,220.5625)"/>
<path d="M0 0 C1.19367187 -0.00773438 2.38734375 -0.01546875 3.6171875 -0.0234375 C8.6220629 0.54504501 11.70821208 2.12822663 15.46875 5.4375 C17.8876061 9.72754667 17.70922267 13.53219641 17.625 18.375 C17.64046875 19.26445312 17.6559375 20.15390625 17.671875 21.0703125 C17.64698554 25.23929758 17.50466686 27.73556108 15.34375 31.375 C11.78733245 34.58078483 9.14161542 35.63162327 4.359375 35.5703125 C3.46992187 35.56386719 2.58046875 35.55742187 1.6640625 35.55078125 C0.74367188 35.53402344 -0.17671875 35.51726562 -1.125 35.5 C-2.06085937 35.49097656 -2.99671875 35.48195313 -3.9609375 35.47265625 C-6.26588657 35.44913636 -8.5703116 35.41626853 -10.875 35.375 C-10.97389302 30.87270526 -11.04647709 26.37104273 -11.09472656 21.86791992 C-11.1148398 20.33623238 -11.1421345 18.80462161 -11.17675781 17.27319336 C-11.22529315 15.07125927 -11.24796996 12.87034018 -11.265625 10.66796875 C-11.28627014 9.98349167 -11.30691528 9.29901459 -11.32818604 8.59379578 C-11.32968408 5.41826397 -11.27696236 3.80104132 -9.05322266 1.4440918 C-5.96832703 -0.07000347 -3.4215179 -0.02207431 0 0 Z M-3.875 7.375 C-3.875 14.635 -3.875 21.895 -3.875 29.375 C4.39401765 30.09890713 4.39401765 30.09890713 8.1875 27.6875 C11.17045965 22.58760124 11.19259033 17.13998778 10.125 11.375 C8.85324107 8.77903239 8.85324107 8.77903239 6.125 7.375 C2.825 7.375 -0.475 7.375 -3.875 7.375 Z " fill="#000000" transform="translate(571.875,220.625)"/>
<path d="M0 0 C1.19367188 -0.00773438 2.38734375 -0.01546875 3.6171875 -0.0234375 C8.6220629 0.54504501 11.70821208 2.12822663 15.46875 5.4375 C17.8876061 9.72754667 17.70922267 13.53219641 17.625 18.375 C17.64046875 19.26445312 17.6559375 20.15390625 17.671875 21.0703125 C17.64698554 25.23929758 17.50466686 27.73556108 15.34375 31.375 C11.78733245 34.58078483 9.14161542 35.63162327 4.359375 35.5703125 C3.46992188 35.56386719 2.58046875 35.55742187 1.6640625 35.55078125 C0.74367188 35.53402344 -0.17671875 35.51726562 -1.125 35.5 C-2.06085938 35.49097656 -2.99671875 35.48195313 -3.9609375 35.47265625 C-6.26588657 35.44913636 -8.5703116 35.41626853 -10.875 35.375 C-10.97389302 30.87270526 -11.04647709 26.37104273 -11.09472656 21.86791992 C-11.1148398 20.33623238 -11.1421345 18.80462161 -11.17675781 17.27319336 C-11.22529315 15.07125927 -11.24796996 12.87034018 -11.265625 10.66796875 C-11.28627014 9.98349167 -11.30691528 9.29901459 -11.32818604 8.59379578 C-11.32968408 5.41826397 -11.27696236 3.80104132 -9.05322266 1.4440918 C-5.96832703 -0.07000347 -3.4215179 -0.02207431 0 0 Z M-3.875 7.375 C-3.875 14.635 -3.875 21.895 -3.875 29.375 C4.39401765 30.09890713 4.39401765 30.09890713 8.1875 27.6875 C11.17045965 22.58760124 11.19259033 17.13998778 10.125 11.375 C8.85324107 8.77903239 8.85324107 8.77903239 6.125 7.375 C2.825 7.375 -0.475 7.375 -3.875 7.375 Z " fill="#000000" transform="translate(266.875,220.625)"/>
<path d="M0 0 C3.5625 0.5625 3.5625 0.5625 5.48828125 2.7734375 C8.68723997 7.99059352 10.37288729 13.98486451 12.3125 19.75 C12.72371094 20.93787109 13.13492188 22.12574219 13.55859375 23.34960938 C16.5625 32.14676339 16.5625 32.14676339 16.5625 35.5625 C13.9225 35.5625 11.2825 35.5625 8.5625 35.5625 C8.2325 34.2425 7.9025 32.9225 7.5625 31.5625 C2.6125 31.5625 -2.3375 31.5625 -7.4375 31.5625 C-7.7675 32.8825 -8.0975 34.2025 -8.4375 35.5625 C-11.0775 35.5625 -13.7175 35.5625 -16.4375 35.5625 C-14.9973933 28.38435157 -12.90769719 21.59692828 -10.5 14.6875 C-10.15259766 13.65625 -9.80519531 12.625 -9.44726562 11.5625 C-9.10501953 10.57507813 -8.76277344 9.58765625 -8.41015625 8.5703125 C-8.10343994 7.67973145 -7.79672363 6.78915039 -7.48071289 5.87158203 C-5.66485978 1.85231251 -4.39287231 0.71883365 0 0 Z M-0.4375 9.5625 C-1.30079773 12.01796966 -2.15339436 14.47628043 -3 16.9375 C-3.3702832 17.98550781 -3.3702832 17.98550781 -3.74804688 19.0546875 C-4.36841049 20.87209075 -4.90856524 22.71641397 -5.4375 24.5625 C-5.1075 25.2225 -4.7775 25.8825 -4.4375 26.5625 C-4.1075 26.2325 -3.7775 25.9025 -3.4375 25.5625 C-0.78286879 25.10790142 1.88439138 24.86006762 4.5625 24.5625 C3.4943153 19.44884986 2.33142524 14.49022031 0.5625 9.5625 C0.2325 9.5625 -0.0975 9.5625 -0.4375 9.5625 Z " fill="#000000" transform="translate(628.4375,220.4375)"/>
<path d="M0 0 C3.5625 0.5625 3.5625 0.5625 5.48828125 2.7734375 C8.68723997 7.99059352 10.37288729 13.98486451 12.3125 19.75 C12.72371094 20.93787109 13.13492187 22.12574219 13.55859375 23.34960938 C16.5625 32.14676339 16.5625 32.14676339 16.5625 35.5625 C13.9225 35.5625 11.2825 35.5625 8.5625 35.5625 C8.2325 34.2425 7.9025 32.9225 7.5625 31.5625 C2.6125 31.5625 -2.3375 31.5625 -7.4375 31.5625 C-7.7675 32.8825 -8.0975 34.2025 -8.4375 35.5625 C-11.0775 35.5625 -13.7175 35.5625 -16.4375 35.5625 C-14.9973933 28.38435157 -12.90769719 21.59692828 -10.5 14.6875 C-10.15259766 13.65625 -9.80519531 12.625 -9.44726562 11.5625 C-9.10501953 10.57507813 -8.76277344 9.58765625 -8.41015625 8.5703125 C-8.10343994 7.67973145 -7.79672363 6.78915039 -7.48071289 5.87158203 C-5.66485978 1.85231251 -4.39287231 0.71883365 0 0 Z M-0.4375 9.5625 C-1.30079773 12.01796966 -2.15339436 14.47628043 -3 16.9375 C-3.3702832 17.98550781 -3.3702832 17.98550781 -3.74804688 19.0546875 C-4.36841049 20.87209075 -4.90856524 22.71641397 -5.4375 24.5625 C-5.1075 25.2225 -4.7775 25.8825 -4.4375 26.5625 C-4.1075 26.2325 -3.7775 25.9025 -3.4375 25.5625 C-0.78286879 25.10790142 1.88439138 24.86006762 4.5625 24.5625 C3.4943153 19.44884986 2.33142524 14.49022031 0.5625 9.5625 C0.2325 9.5625 -0.0975 9.5625 -0.4375 9.5625 Z " fill="#000000" transform="translate(403.4375,220.4375)"/>
<path d="M0 0 C1.02158203 0.01289063 2.04316406 0.02578125 3.09570312 0.0390625 C4.15080078 0.07257813 5.20589844 0.10609375 6.29296875 0.140625 C7.36740234 0.15867188 8.44183594 0.17671875 9.54882812 0.1953125 C12.1936234 0.24233108 14.83658464 0.3080334 17.48046875 0.390625 C15.60546875 6.265625 15.60546875 6.265625 14.48046875 7.390625 C11.61779308 7.46387668 8.77974975 7.48300705 5.91796875 7.453125 C5.11166016 7.44861328 4.30535156 7.44410156 3.47460938 7.43945312 C1.47653119 7.42763018 -0.52150908 7.40969414 -2.51953125 7.390625 C-2.51953125 10.030625 -2.51953125 12.670625 -2.51953125 15.390625 C2.43046875 15.390625 7.38046875 15.390625 12.48046875 15.390625 C12.48046875 17.370625 12.48046875 19.350625 12.48046875 21.390625 C7.53046875 21.390625 2.58046875 21.390625 -2.51953125 21.390625 C-2.51953125 24.030625 -2.51953125 26.670625 -2.51953125 29.390625 C3.09046875 29.390625 8.70046875 29.390625 14.48046875 29.390625 C15.47046875 31.370625 16.46046875 33.350625 17.48046875 35.390625 C13.37653863 35.50654264 9.27302769 35.57778101 5.16796875 35.640625 C4.00072266 35.67414063 2.83347656 35.70765625 1.63085938 35.7421875 C0.51259766 35.75507813 -0.60566406 35.76796875 -1.7578125 35.78125 C-2.78946533 35.80219727 -3.82111816 35.82314453 -4.8840332 35.84472656 C-7.51953125 35.390625 -7.51953125 35.390625 -9.3503418 33.75097656 C-11.76622137 28.87381564 -11.03065157 23.22281819 -11.01953125 17.890625 C-11.04789063 16.65441406 -11.07625 15.41820312 -11.10546875 14.14453125 C-11.10804688 12.95730469 -11.110625 11.77007812 -11.11328125 10.546875 C-11.12037109 9.46212891 -11.12746094 8.37738281 -11.13476562 7.25976562 C-10.51953125 4.390625 -10.51953125 4.390625 -8.32739258 2.03027344 C-5.20439694 0.20660256 -3.57902832 -0.07997829 0 0 Z " fill="#000000" transform="translate(534.51953125,220.609375)"/>
<path d="M0 0 C0 0.99 0 1.98 0 3 C-1.75 4.75 -1.75 4.75 -4 6 C-5.34184031 5.70275689 -6.67467254 5.36386263 -8 5 C-9.53879581 4.88708495 -11.08212089 4.82540033 -12.625 4.8125 C-13.40101563 4.79832031 -14.17703125 4.78414062 -14.9765625 4.76953125 C-17.22836993 4.81334164 -17.22836993 4.81334164 -19 7 C-19.22555081 9.52792663 -19.32438591 11.91055576 -19.3125 14.4375 C-19.32861328 15.11876953 -19.34472656 15.80003906 -19.36132812 16.50195312 C-19.36411181 19.34409546 -19.32286805 21.47876857 -17.8046875 23.9296875 C-15.43634421 25.33428936 -13.55115827 25.50966505 -10.8125 25.6875 C-8.4303125 25.8421875 -8.4303125 25.8421875 -6 26 C-6 22.37 -6 18.74 -6 15 C-3.69 15 -1.38 15 1 15 C1.08097324 17.27024968 1.13917704 19.54132075 1.1875 21.8125 C1.23970703 23.70935547 1.23970703 23.70935547 1.29296875 25.64453125 C1 29 1 29 -0.26708984 30.68041992 C-3.40872449 33.0727185 -7.0009596 32.51218718 -10.8125 32.5 C-12.00456055 32.54253906 -12.00456055 32.54253906 -13.22070312 32.5859375 C-17.3488242 32.59959547 -20.15246163 32.32972557 -23.44921875 29.71875 C-28.85828535 23.95349678 -28.50278026 18.43273889 -28.30859375 10.875 C-27.90950608 5.86367125 -27.36435049 3.70941208 -24 0 C-16.26772438 -4.79401088 -7.8731502 -4.10773054 0 0 Z " fill="#000000" transform="translate(336,224)"/>
<path d="M0 0 C0.99 0.66 1.98 1.32 3 2 C2.25 9.625 2.25 9.625 0 13 C0.66 13 1.32 13 2 13 C2 14.32 2 15.64 2 17 C1.34 17 0.68 17 0 17 C-0.66 18.98 -1.32 20.96 -2 23 C-2.66 23 -3.32 23 -4 23 C-4.433125 24.670625 -4.433125 24.670625 -4.875 26.375 C-6 30 -6 30 -8 32 C-8.67292501 33.96690374 -8.67292501 33.96690374 -9.125 36.125 C-9.41375 37.40375 -9.7025 38.6825 -10 40 C-10.66 40 -11.32 40 -12 40 C-12.34739179 43.91554898 -12.67764816 47.83231081 -13 51.75 C-13.14526123 53.5131958 -13.14526123 53.5131958 -13.29345703 55.31201172 C-13.91533639 63.40302407 -14.176174 71.39563515 -13.75 79.50292969 C-13.57359789 85.16004732 -14.82770278 89.28082516 -18 94 C-18.97264196 95.02662925 -19.96616865 96.03501671 -21 97 C-21.66 96.67 -22.32 96.34 -23 96 C-22 94 -21 92 -20 90 C-19.01 90 -18.02 90 -17 90 C-16.99191315 89.43703217 -16.98382629 88.87406433 -16.97549438 88.29403687 C-16.8892677 82.42122256 -16.7897566 76.54873876 -16.68261719 70.67626953 C-16.6443942 68.48622194 -16.60952978 66.296113 -16.578125 64.10595703 C-16.53232957 60.95322788 -16.47435851 57.80091862 -16.4140625 54.6484375 C-16.40251129 53.67321136 -16.39096008 52.69798523 -16.37905884 51.69320679 C-16.27205452 46.73602681 -15.90515121 42.65276295 -14 38 C-12.46201271 32.60355335 -11.83334246 28.57403046 -13 23 C-12.79375 22.29875 -12.5875 21.5975 -12.375 20.875 C-11.74114969 18.8321992 -11.74114969 18.8321992 -13.4375 16.75 C-13.953125 16.1725 -14.46875 15.595 -15 15 C-14.34 14.01 -13.68 13.02 -13 12 C-15.64 12.66 -18.28 13.32 -21 14 C-21 14.66 -21 15.32 -21 16 C-28.59527005 19.47288089 -35.70614646 21.90612562 -44 23 C-44 22.34 -44 21.68 -44 21 C-38.555 20.01 -38.555 20.01 -33 19 C-33 18.34 -33 17.68 -33 17 C-29.7 16.34 -26.4 15.68 -23 15 C-23 14.34 -23 13.68 -23 13 C-22.030625 12.71125 -21.06125 12.4225 -20.0625 12.125 C-16.89335797 11.35785318 -16.89335797 11.35785318 -16 9 C-14.02111039 8.27306096 -12.02045442 7.60183749 -10 7 C-10 6.34 -10 5.68 -10 5 C-6.7 3.35 -3.4 1.7 0 0 Z " fill="#6C74F9" transform="translate(164,88)"/>
<path d="M0 0 C10.23 0 20.46 0 31 0 C27.71327705 6.02565875 24.40537534 12.04059316 21 18 C14.07 18 7.14 18 0 18 C0 12.06 0 6.12 0 0 Z " fill="#000000" transform="translate(345,101)"/>
<path d="M0 0 C8.58 0 17.16 0 26 0 C26 2.31 26 4.62 26 7 C22.7 7 19.4 7 16 7 C16 16.24 16 25.48 16 35 C13.69 35 11.38 35 9 35 C8.67 25.76 8.34 16.52 8 7 C5.36 7 2.72 7 0 7 C0 4.69 0 2.38 0 0 Z " fill="#000000" transform="translate(361,221)"/>
<path d="M0 0 C2.31 0 4.62 0 7 0 C7 9.57 7 19.14 7 29 C12.28 29 17.56 29 23 29 C23.99 30.98 24.98 32.96 26 35 C22.22931168 35.086985 18.45888068 35.14038579 14.6875 35.1875 C13.61564453 35.21263672 12.54378906 35.23777344 11.43945312 35.26367188 C10.41142578 35.27333984 9.38339844 35.28300781 8.32421875 35.29296875 C7.37635498 35.3086792 6.42849121 35.32438965 5.4519043 35.34057617 C3 35 3 35 1.18554688 33.9375 C-0.61858279 30.98907063 -0.36870846 28.05516994 -0.29296875 24.70703125 C-0.28872391 24.00100266 -0.28447906 23.29497406 -0.28010559 22.56755066 C-0.26333034 20.31547697 -0.22568243 18.06430258 -0.1875 15.8125 C-0.17245157 14.28451815 -0.15876344 12.75652224 -0.14648438 11.22851562 C-0.11343089 7.48533128 -0.06165832 3.74281804 0 0 Z " fill="#000000" transform="translate(428,221)"/>
<path d="M0 0 C2.31 0 4.62 0 7 0 C7 11.55 7 23.1 7 35 C4.69 35 2.38 35 0 35 C0 23.45 0 11.9 0 0 Z " fill="#000000" transform="translate(598,221)"/>
<path d="M0 0 C2.31 0 4.62 0 7 0 C7 11.55 7 23.1 7 35 C4.69 35 2.38 35 0 35 C0 23.45 0 11.9 0 0 Z " fill="#000000" transform="translate(346,221)"/>
<path d="M0 0 C2.31 0 4.62 0 7 0 C7 11.55 7 23.1 7 35 C4.69 35 2.38 35 0 35 C0 23.45 0 11.9 0 0 Z " fill="#000000" transform="translate(293,221)"/>
<path d="M0 0 C0.99 0.66 1.98 1.32 3 2 C2.25 9.625 2.25 9.625 0 13 C0.66 13 1.32 13 2 13 C2 14.32 2 15.64 2 17 C1.34 17 0.68 17 0 17 C-0.66 18.98 -1.32 20.96 -2 23 C-2.66 23 -3.32 23 -4 23 C-4.66 24.32 -5.32 25.64 -6 27 C-5.125 22.25 -5.125 22.25 -4 20 C-4.66 20 -5.32 20 -6 20 C-6 20.66 -6 21.32 -6 22 C-6.66 21.67 -7.32 21.34 -8 21 C-8.4140625 18.27734375 -8.4140625 18.27734375 -8.625 14.9375 C-8.69976562 13.83277344 -8.77453125 12.72804688 -8.8515625 11.58984375 C-8.90054688 10.73519531 -8.94953125 9.88054687 -9 9 C-10.32 8.67 -11.64 8.34 -13 8 C-12.01 7.67 -11.02 7.34 -10 7 C-10 6.34 -10 5.68 -10 5 C-6.7 3.35 -3.4 1.7 0 0 Z " fill="#5974EF" transform="translate(164,88)"/>
<path d="M0 0 C0.33 0 0.66 0 1 0 C1.44326683 5.24796262 0.16616431 8.08186276 -2.5 12.5625 C-4.94316214 16.67806479 -6.337391 19.20061309 -6 24 C-6.33 24.66 -6.66 25.32 -7 26 C-6.86002914 27.5882408 -6.66465539 29.17186784 -6.4375 30.75 C-5.97257059 35.05214681 -5.93947307 38.06626677 -8 42 C-10.625 44.375 -10.625 44.375 -13 46 C-13 45.34 -13 44.68 -13 44 C-13.66 44 -14.32 44 -15 44 C-14.76603516 43.07767578 -14.76603516 43.07767578 -14.52734375 42.13671875 C-14.33269531 41.32847656 -14.13804687 40.52023438 -13.9375 39.6875 C-13.74027344 38.88699219 -13.54304687 38.08648437 -13.33984375 37.26171875 C-12.80114446 34.84042821 -12.80114446 34.84042821 -14 32 C-15.98 32.66 -17.96 33.32 -20 34 C-18.96422054 30.89266163 -17.86690594 29.89977271 -15.58984375 27.6953125 C-8.33871482 19.96315044 -2.30134328 10.44083109 0 0 Z " fill="#4A72DF" transform="translate(179,57)"/>
<path d="M0 0 C0.33 0.99 0.66 1.98 1 3 C0.34 3.66 -0.32 4.32 -1 5 C-1.67292501 6.96690374 -1.67292501 6.96690374 -2.125 9.125 C-2.41375 10.40375 -2.7025 11.6825 -3 13 C-3.66 13 -4.32 13 -5 13 C-5.34739179 16.91554898 -5.67764816 20.83231081 -6 24.75 C-6.09684082 25.92546387 -6.19368164 27.10092773 -6.29345703 28.31201172 C-6.91533639 36.40302407 -7.176174 44.39563515 -6.75 52.50292969 C-6.57359789 58.16004732 -7.82770278 62.28082516 -11 67 C-11.97264196 68.02662925 -12.96616865 69.03501671 -14 70 C-14.66 69.67 -15.32 69.34 -16 69 C-15 67 -14 65 -13 63 C-12.01 63 -11.02 63 -10 63 C-9.99191315 62.43703217 -9.98382629 61.87406433 -9.97549438 61.29403687 C-9.8892677 55.42122256 -9.7897566 49.54873876 -9.68261719 43.67626953 C-9.6443942 41.48622194 -9.60952978 39.296113 -9.578125 37.10595703 C-9.53232957 33.95322788 -9.47435851 30.80091862 -9.4140625 27.6484375 C-9.39673569 26.1855983 -9.39673569 26.1855983 -9.37905884 24.69320679 C-9.27196421 19.73184306 -8.89412238 15.65948658 -7 11 C-6.31470165 8.36047175 -5.63331346 5.72100426 -4.9765625 3.07421875 C-4 1 -4 1 -1.8984375 0.20703125 C-1.27195313 0.13871094 -0.64546875 0.07039063 0 0 Z " fill="#4D5CBB" transform="translate(157,115)"/>
<path d="M0 0 C1.47786304 0.00503337 2.95572777 0.00959298 4.43359375 0.01367188 C7.99743195 0.02451282 11.56120447 0.04167221 15.125 0.0625 C3.31375252 6.26503718 -14.92093115 3.15677998 -27.875 3.0625 C-27.875 3.7225 -27.875 4.3825 -27.875 5.0625 C-29.5146875 5.2790625 -29.5146875 5.2790625 -31.1875 5.5 C-34.80622987 5.94538104 -34.80622987 5.94538104 -37.875 7.0625 C-38.535 6.4025 -39.195 5.7425 -39.875 5.0625 C-27.94849135 -1.72109619 -13.32295779 -0.08029529 0 0 Z " fill="#359CAF" transform="translate(237.875,73.9375)"/>
<path d="M0 0 C0.33 0 0.66 0 1 0 C1 20.79 1 41.58 1 63 C-3.57921955 64.83168782 -5.80890657 65.27203288 -10.5625 65.25 C-12.23505859 65.25773437 -12.23505859 65.25773437 -13.94140625 65.265625 C-16.86555372 65.01167605 -18.53085968 64.52132851 -21 63 C-19.33710938 62.96132812 -19.33710938 62.96132812 -17.640625 62.921875 C-16.17704453 62.86558344 -14.71350438 62.80823633 -13.25 62.75 C-12.52039063 62.73582031 -11.79078125 62.72164062 -11.0390625 62.70703125 C-7.70873814 62.55565287 -5.48290569 62.36658563 -2.79095459 60.32305908 C-0.55219713 57.41915193 -0.48575447 55.86176424 -0.45410156 52.22167969 C-0.42452362 50.48032745 -0.42452362 50.48032745 -0.39434814 48.70379639 C-0.39311951 47.45576233 -0.39189087 46.20772827 -0.390625 44.921875 C-0.37408875 43.64016418 -0.35755249 42.35845337 -0.34051514 41.03790283 C-0.29687446 37.63817454 -0.27685035 34.2387041 -0.26177979 30.83874512 C-0.24219642 27.36630019 -0.20022797 23.89413324 -0.16015625 20.421875 C-0.08489044 13.61468821 -0.03457723 6.80751173 0 0 Z " fill="#36DFC0" transform="translate(256,9)"/>
<path d="M0 0 C0.33 0 0.66 0 1 0 C0.88180475 5.6418279 0.75755997 11.28347768 0.62768555 16.92504883 C0.5843506 18.84460825 0.54267448 20.76420585 0.50268555 22.68383789 C0.44494822 25.44168614 0.38126365 28.19934241 0.31640625 30.95703125 C0.29969376 31.81649857 0.28298126 32.67596588 0.26576233 33.56147766 C0.24581711 34.36208115 0.22587189 35.16268463 0.20532227 35.98754883 C0.18977798 36.6914827 0.1742337 37.39541656 0.15821838 38.12068176 C0 40 0 40 -1 43 C-1.99 42.67 -2.98 42.34 -4 42 C-4 38.7 -4 35.4 -4 32 C-3.67 32 -3.34 32 -3 32 C-2.94465088 31.06615479 -2.88930176 30.13230957 -2.83227539 29.17016602 C-2.62537775 25.7166332 -2.41433508 22.2634064 -2.20043945 18.81030273 C-2.10859593 17.31365975 -2.01842231 15.81691333 -1.92993164 14.32006836 C-1.80269731 12.17272239 -1.66952801 10.02581589 -1.53515625 7.87890625 C-1.456604 6.5854126 -1.37805176 5.29191895 -1.29711914 3.95922852 C-1 1 -1 1 0 0 Z " fill="#7169EC" transform="translate(148,135)"/>
<path d="M0 0 C1.25425781 0.04511719 2.50851563 0.09023438 3.80078125 0.13671875 C4.75339844 0.19472656 5.70601562 0.25273438 6.6875 0.3125 C6.6875 0.6425 6.6875 0.9725 6.6875 1.3125 C-1.88392857 2.59821429 -1.88392857 2.59821429 -5.3125 1.3125 C-5.745625 2.240625 -5.745625 2.240625 -6.1875 3.1875 C-7.3125 5.3125 -7.3125 5.3125 -9.3125 7.3125 C-9.6518165 10.06169778 -9.6518165 10.06169778 -9.65625 13.2734375 C-9.68589844 14.46710937 -9.71554688 15.66078125 -9.74609375 16.890625 C-9.76800781 18.14359375 -9.78992188 19.3965625 -9.8125 20.6875 C-9.85590304 23.15381387 -9.90763299 25.61999901 -9.96875 28.0859375 C-9.98744141 29.18341309 -10.00613281 30.28088867 -10.02539062 31.41162109 C-10.30460065 34.23268698 -10.85509984 35.91331681 -12.3125 38.3125 C-12.43644421 33.70444479 -12.52699675 29.09736719 -12.5871582 24.48803711 C-12.61224547 22.92145886 -12.64632415 21.35499701 -12.68969727 19.78881836 C-12.75061226 17.53209691 -12.77876499 15.27692706 -12.80078125 13.01953125 C-12.82658768 12.32350296 -12.8523941 11.62747467 -12.87898254 10.91035461 C-12.88118625 7.05730157 -12.40603437 5.43206889 -10.00390625 2.36132812 C-6.47990886 -0.32130849 -4.37417678 -0.20440078 0 0 Z " fill="#4A98F4" transform="translate(197.3125,2.6875)"/>
<path d="M0 0 C0 5.93278725 -0.17212021 11.8646477 -0.31738281 17.79541016 C-0.35562437 19.42456544 -0.39048568 21.05380376 -0.421875 22.68310547 C-0.46786166 25.04423301 -0.52576751 27.4048213 -0.5859375 29.765625 C-0.59748871 30.48566711 -0.60903992 31.20570923 -0.62094116 31.9475708 C-0.75644954 36.65677872 -1.55209547 40.56266252 -3 45 C-3.66 44.67 -4.32 44.34 -5 44 C-4.83935059 43.50757813 -4.67870117 43.01515625 -4.51318359 42.5078125 C-3.79038392 38.97565347 -3.82381988 35.46560551 -3.7890625 31.875 C-3.76100577 30.26561462 -3.73234139 28.65623974 -3.703125 27.046875 C-3.66181149 24.51888188 -3.62490738 21.99108743 -3.59863281 19.46289062 C-3.57102786 17.01652056 -3.52517516 14.57103074 -3.4765625 12.125 C-3.47330963 11.3707373 -3.47005676 10.61647461 -3.46670532 9.83935547 C-3.3681681 5.63094737 -3.00796286 3.05291746 0 0 Z " fill="#3767BB" transform="translate(186,5)"/>
<path d="M0 0 C1.02574883 0.00212242 1.02574883 0.00212242 2.07221985 0.00428772 C4.25261847 0.00987749 6.43291376 0.02242803 8.61328125 0.03515625 C10.09309747 0.04017258 11.57291531 0.04473525 13.05273438 0.04882812 C16.67711682 0.05984354 20.30143895 0.07710113 23.92578125 0.09765625 C18.78031244 3.06619595 13.47743942 3.22414961 7.65234375 3.1953125 C6.49863281 3.19208984 5.34492187 3.18886719 4.15625 3.18554688 C2.96644531 3.17716797 1.77664062 3.16878906 0.55078125 3.16015625 C-0.66222656 3.15564453 -1.87523438 3.15113281 -3.125 3.14648438 C-6.10812382 3.13473979 -9.09114554 3.11831465 -12.07421875 3.09765625 C-8.46456182 -0.51200068 -4.86554457 -0.01985937 0 0 Z " fill="#C148E3" transform="translate(89.07421875,110.90234375)"/>
<path d="M0 0 C0.33 0 0.66 0 1 0 C1.09973852 3.98340305 1.17187198 7.96631108 1.21972656 11.95068359 C1.24946045 13.96347627 1.30031729 15.97592134 1.3515625 17.98828125 C1.43394051 26.1848934 1.30965335 32.51281466 -4.63574219 38.703125 C-5.08594727 39.13109375 -5.53615234 39.5590625 -6 40 C-6.66 39.67 -7.32 39.34 -8 39 C-7 37 -6 35 -5 33 C-4.01 33 -3.02 33 -2 33 C-1.96241577 31.55379272 -1.96241577 31.55379272 -1.92407227 30.07836914 C-1.83014694 26.51312158 -1.72989061 22.94807567 -1.62768555 19.38305664 C-1.58428015 17.83785711 -1.54260929 16.29260786 -1.50268555 14.74731445 C-1.44511801 12.53060904 -1.38138576 10.3141552 -1.31640625 8.09765625 C-1.29969376 7.4028566 -1.28298126 6.70805695 -1.26576233 5.99220276 C-1.11387171 1.11387171 -1.11387171 1.11387171 0 0 Z " fill="#5667B1" transform="translate(149,145)"/>
<path d="M0 0 C0.98120464 3.05263664 0.98120464 4.94736336 0 8 C0.66 8.33 1.32 8.66 2 9 C2 9.99 2 10.98 2 12 C2.33 12.99 2.66 13.98 3 15 C2.01 15.495 2.01 15.495 1 16 C0.34 15.67 -0.32 15.34 -1 15 C-1 15.66 -1 16.32 -1 17 C-1.66 16.67 -2.32 16.34 -3 16 C-3.4140625 12.83984375 -3.4140625 12.83984375 -3.625 8.9375 C-3.69976562 7.64714844 -3.77453125 6.35679688 -3.8515625 5.02734375 C-3.90054688 4.02832031 -3.94953125 3.02929688 -4 2 C-2.68 1.34 -1.36 0.68 0 0 Z " fill="#6577F9" transform="translate(159,93)"/>
<path d="M0 0 C0.99 0.33 1.98 0.66 3 1 C0.60490662 3.89932357 -1.31245243 4.50168276 -5 5 C-5 5.66 -5 6.32 -5 7 C-12.59527005 10.47288089 -19.70614646 12.90612562 -28 14 C-28 13.34 -28 12.68 -28 12 C-22.555 11.01 -22.555 11.01 -17 10 C-17 9.34 -17 8.68 -17 8 C-13.7 7.34 -10.4 6.68 -7 6 C-7 5.34 -7 4.68 -7 4 C-6.030625 3.71125 -5.06125 3.4225 -4.0625 3.125 C-0.89335797 2.35785318 -0.89335797 2.35785318 0 0 Z " fill="#4E5DBA" transform="translate(148,97)"/>
<path d="M0 0 C-3.06246747 1.78409802 -5.22079273 2.22880021 -8.75 2.125 C-9.54921875 2.10695313 -10.3484375 2.08890625 -11.171875 2.0703125 C-11.77515625 2.04710938 -12.3784375 2.02390625 -13 2 C-13 2.66 -13 3.32 -13 4 C-14.6396875 4.2165625 -14.6396875 4.2165625 -16.3125 4.4375 C-19.93122987 4.88288104 -19.93122987 4.88288104 -23 6 C-23.66 5.34 -24.32 4.68 -25 4 C-16.99305891 -0.98209668 -9.06833432 -0.40056446 0 0 Z " fill="#437CB4" transform="translate(223,75)"/>
<path d="M0 0 C0.33 0.99 0.66 1.98 1 3 C-1.29178819 5.84226673 -2.4192603 6.91347565 -6.09375 7.4609375 C-7.2178125 7.43257813 -8.341875 7.40421875 -9.5 7.375 C-10.6240625 7.36210938 -11.748125 7.34921875 -12.90625 7.3359375 C-15.81120217 7.02050077 -17.53708533 6.50913889 -20 5 C-18.33710938 4.96132812 -18.33710938 4.96132812 -16.640625 4.921875 C-15.17704453 4.86558344 -13.71350438 4.80823633 -12.25 4.75 C-11.15558594 4.72873047 -11.15558594 4.72873047 -10.0390625 4.70703125 C-6.37424151 4.54044848 -4.36948928 4.30064035 -1.484375 1.953125 C-0.99453125 1.30859375 -0.5046875 0.6640625 0 0 Z " fill="#41F0D9" transform="translate(255,67)"/>
<path d="M0 0 C-0.66 1.32 -1.32 2.64 -2 4 C-7.94 4 -13.88 4 -20 4 C-20 3.67 -20 3.34 -20 3 C-18.86820312 2.86722656 -17.73640625 2.73445312 -16.5703125 2.59765625 C-15.08851821 2.4194658 -13.60674864 2.24106971 -12.125 2.0625 C-11.00544922 1.93198242 -11.00544922 1.93198242 -9.86328125 1.79882812 C-6.51424787 1.39151325 -3.23058195 0 0 0 Z " fill="#886DE8" transform="translate(144,180)"/>
<path d="M0 0 C1 3 1 3 -0.1875 5.625 C-2 8 -2 8 -4.1875 8.8125 C-4.785625 8.874375 -5.38375 8.93625 -6 9 C-5.37344168 6.07606119 -4.5838192 3.55170871 -3 1 C-2.01 0.67 -1.02 0.34 0 0 Z " fill="#5D67D8" transform="translate(157,115)"/>
<path d="M0 0 C0.99 0.495 0.99 0.495 2 1 C3.17611086 5.99847118 2.96237913 9.26720327 1 14 C0.67 14 0.34 14 0 14 C0 9.38 0 4.76 0 0 Z " fill="#487FD7" transform="translate(180,51)"/>
<path d="M0 0 C5.37305699 -0.35233161 5.37305699 -0.35233161 8 0 C10 2 10 2 11 4 C7.89448334 4 6.64738916 3.4606285 4 2 C3.01 2.66 2.02 3.32 1 4 C0.67 2.68 0.34 1.36 0 0 Z " fill="#3CF2D5" transform="translate(244,3)"/>
<path d="M0 0 C-1 3 -1 3 -2.77734375 4.203125 C-3.49019531 4.54859375 -4.20304688 4.8940625 -4.9375 5.25 C-6.00291016 5.78367187 -6.00291016 5.78367187 -7.08984375 6.328125 C-8.03537109 6.66070312 -8.03537109 6.66070312 -9 7 C-9.66 6.67 -10.32 6.34 -11 6 C-10.01 5.67 -9.02 5.34 -8 5 C-8 4.34 -8 3.68 -8 3 C-2.25 0 -2.25 0 0 0 Z " fill="#566CD9" transform="translate(162,90)"/>
<path d="M0 0 C0.33 0.66 0.66 1.32 1 2 C-2.09677419 8.42293907 -2.09677419 8.42293907 -5.25 10.4375 C-6.11625 10.7159375 -6.11625 10.7159375 -7 11 C-5.125 6.25 -5.125 6.25 -4 4 C-3.01 4 -2.02 4 -1 4 C-0.67 2.68 -0.34 1.36 0 0 Z " fill="#4D57B3" transform="translate(148,174)"/>
<path d="M0 0 C0 0.33 0 0.66 0 1 C-3.61973402 2.31626692 -6.09567131 3 -10 3 C-10.33 3.99 -10.66 4.98 -11 6 C-12.32 5.34 -13.64 4.68 -15 4 C-5.77448747 -0.59225513 -5.77448747 -0.59225513 0 0 Z " fill="#3D91CA" transform="translate(213,75)"/>
<path d="M0 0 C0.33 0.99 0.66 1.98 1 3 C-0.32 4.32 -1.64 5.64 -3 7 C-3.99 6.67 -4.98 6.34 -6 6 C-4 4 -2 2 0 0 Z " fill="#3BECD2" transform="translate(255,67)"/>
</svg>
